# xmcd
#
# Track frame offsets:
#	150
#	15270
#	29793
#	50143
#	66296
#	81865
#	88414
#	106575
#	124148
#	137981
#
# Disc length: 1989 seconds
#
# Revision: 0
# Processed by: cddbd v1.4PL0 Copyright (c) Steve Scherf et al.
# Submitted via: dBpowerAMP V4.0
#
DISCID=8b07c30a
DTITLE=Dwight Yoakam - Hillbilly Deluxe
DYEAR=1900
DGENRE=Country
TTITLE0=Little Ways
TTITLE1=Smoke Along The Track
TTITLE2=Johnson's Love
TTITLE3=Please, Please Baby
TTITLE4=Readin', Rightin', RT. 23
TTITLE5=Always Late With Your Kisses
TTITLE6=1,000 Miles
TTITLE7=Throughout All Time
TTITLE8=Little Sister
TTITLE9=This Drinkin' Will Kill Me
EXTD=
EXTT0=
EXTT1=
EXTT2=
EXTT3=
EXTT4=
EXTT5=
EXTT6=
EXTT7=
EXTT8=
EXTT9=
PLAYORDER=
